<?xml version="1.0" encoding="UTF-8" standalone="no"?>
<svg
   xmlns:dc="http://purl.org/dc/elements/1.1/"
   xmlns:cc="http://creativecommons.org/ns#"
   xmlns:rdf="http://www.w3.org/1999/02/22-rdf-syntax-ns#"
   xmlns:svg="http://www.w3.org/2000/svg"
   xmlns="http://www.w3.org/2000/svg"
   id="svg389"
   version="1.1"
   viewBox="0 0 82.170021 24.530001"
   height="24.530001mm"
   width="82.170021mm">
  <defs
     id="defs383" />
  <metadata
     id="metadata386">
    <rdf:RDF>
      <cc:Work
         rdf:about="">
        <dc:format>image/svg+xml</dc:format>
        <dc:type
           rdf:resource="http://purl.org/dc/dcmitype/StillImage" />
        <dc:title></dc:title>
      </cc:Work>
    </rdf:RDF>
  </metadata>
  <g
     transform="translate(-85.914989,-60.973095)"
     id="layer1">
    <g
       id="g73"
       style="clip-rule:evenodd;fill-rule:evenodd;image-rendering:optimizeQuality;shape-rendering:geometricPrecision;text-rendering:geometricPrecision"
       transform="matrix(0.01,0,0,0.01,-26.805011,18.113095)">
      <path
         style="fill:#416e74"
         class="fil0"
         d="m 13437,6018 c 478,0 866,-388 866,-866 0,-478 -388,-866 -866,-866 h -1010 v 289 h 1010 c 319,0 577,258 577,577 0,319 -258,577 -577,577 h -722 c -156,0 -288,139 -288,289 v 433 c 21,189 123,279 288,288 h 145 c 176,-5 271,-102 288,-288 v -289 h -288 v 289 h -145 v -433 z"
         id="path69" />drawing.svg
      <path
         style="fill:#79d0dc"
         class="fil1"
         d="m 11561,6018 72,-1 411,294 c 78,47 203,32 210,-101 l -1,-192 h 49 c 4,-115 46,-212 125,-289 h -289 c -94,0 -143,55 -144,144 v 73 l -289,-217 h -144 v -577 h 1732 v 288 h 288 v -288 c 0,-186 -66,-289 -288,-289 h -1732 c -200,0 -289,78 -289,295 v 571 c 0,210 66,295 289,289 z"
         id="path71" />
    </g>
    <path
       style="clip-rule:evenodd;fill:#416e74;fill-rule:nonzero;stroke-width:0.01;image-rendering:optimizeQuality;shape-rendering:geometricPrecision;text-rendering:geometricPrecision"
       class="fil2"
       d="m 129.37501,70.523101 c 0,1.22 -0.31001,2.2 -0.93,2.95 -0.62001,0.750001 -1.39001,1.12 -2.30001,1.12 -0.38,0 -0.70999,-0.04 -0.99,-0.129999 -0.28999,-0.09 -0.59,-0.22 -0.91,-0.4 v 3.18 h -2.38 V 66.803101 h 2.38 v 0.8 c 0.36,-0.3 0.71,-0.54 1.08,-0.73 0.36,-0.18 0.78,-0.27 1.26,-0.27 0.89,0 1.57,0.35 2.06,1.05 0.49,0.7 0.73001,1.66 0.73001,2.87 z m -2.44001,0.05 c 0,-0.74 -0.11,-1.28 -0.34,-1.62 -0.23,-0.34 -0.59,-0.5 -1.08,-0.5 -0.21,0 -0.43,0.03 -0.64,0.1 -0.21,0.07 -0.42,0.17 -0.63,0.31 v 3.84 c 0.13,0.05 0.27,0.09 0.42,0.110001 0.16,0.03 0.34,0.04 0.55,0.04 0.58001,0 1.02,-0.19 1.30001,-0.57 0.27999,-0.38 0.41999,-0.95 0.41999,-1.710001 z m 10.83001,-3.77 -3.85001,10.440001 h -2.56 l 1.16,-2.99 -2.79999,-7.450001 h 2.5 l 1.59999,4.79 1.5,-4.79 z m 4.63,7.850001 c -0.63,0 -1.2,-0.08 -1.73,-0.240001 -0.52001,-0.159999 -0.97,-0.4 -1.36,-0.739999 -0.38,-0.330001 -0.68,-0.740001 -0.89,-1.240001 -0.21,-0.5 -0.32,-1.09 -0.32,-1.77 0,-0.74 0.11999,-1.36 0.35,-1.87 0.23,-0.51 0.54,-0.93 0.93,-1.26 0.39,-0.32 0.83,-0.55 1.35,-0.71 0.51,-0.15 1.04999,-0.22 1.61,-0.22 0.42,0 0.84,0.04 1.26,0.14 0.42,0.1 0.85,0.25 1.27,0.47 v 2.03 h -0.31 c -0.09,-0.09 -0.21,-0.19 -0.35,-0.3 -0.13,-0.1 -0.28,-0.2 -0.45,-0.29 -0.17,-0.1 -0.37,-0.18 -0.58,-0.24 -0.22,-0.07 -0.46,-0.1 -0.73,-0.1 -0.61,0 -1.08,0.21 -1.41,0.63 -0.33,0.43 -0.5,1 -0.5,1.72 0,0.76 0.17999,1.33 0.53,1.71 0.36,0.38 0.83,0.56 1.42,0.56 0.3,0 0.55999,-0.03 0.79,-0.1 0.23,-0.07 0.42,-0.15 0.59,-0.25 0.15,-0.09 0.29,-0.19 0.4,-0.29 0.12,-0.1 0.21,-0.19 0.29,-0.28 h 0.31 v 2.04 c -0.14,0.06 -0.29,0.130001 -0.47,0.210001 -0.18,0.08 -0.36,0.14 -0.55,0.189999 -0.23,0.06 -0.45,0.110001 -0.65,0.150001 -0.2,0.03 -0.47,0.05 -0.8,0.05 z m 10.76,-0.21 h -2.38 v -3.790001 c 0,-0.31 -0.01,-0.61 -0.04,-0.92 -0.02,-0.3 -0.07,-0.53 -0.14,-0.67 -0.08,-0.18 -0.2,-0.3 -0.35,-0.38 -0.16,-0.07 -0.36,-0.11 -0.62,-0.11 -0.2,0 -0.4,0.04 -0.6,0.11 -0.2,0.07 -0.42,0.19 -0.64,0.35 v 5.410001 h -2.39 V 63.853101 h 2.39 v 3.8 c 0.39,-0.33 0.77,-0.59 1.14,-0.78 0.36,-0.18 0.78,-0.27 1.22,-0.27 0.78,0 1.38,0.24 1.79,0.73 0.42,0.49 0.62,1.21 0.62,2.14 z m 5.97,-2.000001 v -1.6 c -0.4,0.05 -0.73,0.08 -0.97,0.11 -0.25,0.03 -0.49,0.09 -0.73,0.17 -0.21,0.08 -0.37,0.19 -0.48,0.33 -0.12,0.15 -0.18,0.35 -0.18,0.6 0,0.36 0.1,0.6 0.29,0.74 0.19,0.130001 0.47,0.200001 0.85,0.200001 0.2,0 0.41,-0.05 0.63,-0.150001 0.22,-0.09 0.41,-0.22 0.59,-0.4 z m 0,1.19 c -0.16,0.13 -0.31,0.260001 -0.44,0.370001 -0.13,0.1 -0.3,0.21 -0.52,0.32 -0.21,0.11 -0.42,0.19 -0.62,0.24 -0.2,0.06 -0.48,0.09 -0.84,0.09 -0.67,0 -1.23,-0.23 -1.68,-0.69 -0.44,-0.450001 -0.67,-1.020001 -0.67,-1.710001 0,-0.57 0.12,-1.03 0.34,-1.38 0.23,-0.35 0.55,-0.63 0.98,-0.83 0.43,-0.21 0.94,-0.36 1.54,-0.44 0.59,-0.08 1.23,-0.14 1.92,-0.19 v -0.04 c 0,-0.42 -0.15,-0.72 -0.46,-0.88 -0.31,-0.16 -0.78,-0.24 -1.39,-0.24 -0.28,0 -0.61,0.05 -0.99,0.16 -0.37,0.1 -0.74,0.23 -1.09,0.39 h -0.21 v -1.85 c 0.24,-0.07 0.62,-0.15 1.15,-0.24 0.52,-0.1 1.05,-0.14 1.59,-0.14 1.31,0 2.27,0.22 2.87,0.65 0.6,0.44 0.9,1.11 0.9,2.01 v 5.210001 h -2.38 z m 7.07,0.96 c -0.97,0 -1.68,-0.199999 -2.12,-0.599999 -0.45,-0.400001 -0.67,-1.050001 -0.67,-1.960001 v -3.57 h -0.9 v -1.66 h 0.9 v -2.18 h 2.39 v 2.18 h 2.29 v 1.66 h -2.29 v 2.71 c 0,0.27 0,0.51 0,0.71 0.01,0.2 0.04,0.38 0.11,0.54 0.06,0.15 0.18,0.28 0.34,0.37 0.16,0.1 0.4,0.14 0.7,0.14 0.13,0 0.3,-0.02 0.51,-0.08 0.2,-0.06 0.35,-0.11 0.43,-0.15 h 0.2 v 1.670001 c -0.25,0.07 -0.53,0.13 -0.82,0.16 -0.29,0.04 -0.65,0.06 -1.07,0.06 z"
       id="path75" />
  </g>
</svg>
