<?xml version="1.0" standalone="no"?>
<!DOCTYPE svg PUBLIC "-//W3C//DTD SVG 1.1//EN" "http://www.w3.org/Graphics/SVG/1.1/DTD/svg11.dtd">
<svg xmlns="http://www.w3.org/2000/svg">
<metadata>Copyright (C) 2020 by original authors @ fontello.com</metadata>
<defs>
<font id="fontello" horiz-adv-x="1000" >
<font-face font-family="fontello" font-weight="400" font-stretch="normal" units-per-em="1000" ascent="1000" descent="0" />
<missing-glyph horiz-adv-x="1000" />
<glyph glyph-name="paper-plane" unicode="&#xe79b;" d="M894 870q14 4 22-3t4-19q-2-6-72-310t-74-316q-2-14-14-19t-24 1l-248 134-30 16 22 26q388 420 394 426 4 4-1 9t-9 1l-550-402-112 44-190 76q-12 4-12 12t12 12q8 4 441 157t441 155z m-582-728l0 204 160-82q-130-116-142-128-18-14-18 6z" horiz-adv-x="921" />

<glyph glyph-name="webrtc-hangup" unicode="&#xe800;" d="M510 592c-46 0-91-8-134-21v-91c0-11-6-21-16-26-28-14-55-33-78-54-5-5-12-8-20-8-8 0-15 3-21 8l-72 72c-5 6-9 13-9 21 0 8 4 15 9 21 89 84 209 136 341 136s253-52 342-136c5-5 8-13 8-21 0-8-3-15-8-20l-72-73c-6-5-13-8-21-8-8 0-15 3-20 8-23 22-50 40-78 54-10 5-16 15-16 26v91c-43 13-88 21-135 21z" horiz-adv-x="1000" />

<glyph glyph-name="cog" unicode="&#xe801;" d="M0 422l0 156 150 16q14 44 38 88l-96 117 109 109 117-95q41 23 88 37l16 150 156 0 15-150q45-14 89-37l117 95 109-109-95-117q23-44 37-88l150-16 0-156-150-15q-14-48-37-89l95-117-109-109-117 96q-44-24-89-38l-15-150-156 0-16 150q-47 14-88 38l-117-96-109 109 96 117q-24 41-38 89z m355 78q0-61 43-102t102-42 103 42 41 102-41 103-103 42-102-42-43-103z" horiz-adv-x="1000" />

<glyph glyph-name="pencil" unicode="&#xe802;" d="M203 143l50 50-130 132-51-51v-60h71v-71h60z m291 518q0 12-11 12-6 0-10-4l-303-302q-3-4-3-9 0-13 11-13 6 0 10 3l303 303q3 4 3 10z m-30 107l233-232-464-464h-233v231z m381-54q0-29-20-50l-92-92-233 231 93 93q20 21 50 21 30 0 50-21l132-131q20-22 20-51z" horiz-adv-x="857.1" />

<glyph glyph-name="mail" unicode="&#xe803;" d="M0 121l324 342 176-100 176 100 324-342-1000 0z m0 113l0 414 254-145z m0 504l0 141 1000 0 0-141-500-285z m746-235l254 145 0-414z" horiz-adv-x="1000" />

<glyph glyph-name="mic" unicode="&#xe804;" d="M643 608v-72q0-123-82-215t-203-104v-74h142q14 0 25-10t11-25-11-26-25-10h-357q-15 0-25 10t-10 26 10 25 25 10h143v74q-121 13-203 104t-83 215v72q0 14 11 25t25 10 25-10 11-25v-72q0-103 73-177t177-73 176 73 74 177v72q0 14 10 25t26 10 25-10 10-25z m-143 214v-286q0-74-52-126t-126-52-127 52-52 126v286q0 73 52 126t127 52 126-52 52-126z" horiz-adv-x="642.9" />

<glyph glyph-name="volume-2" unicode="&#xe805;" d="M0 292l0 416 237 0 353 289 0-994-353 289-237 0z m653 36q72 74 72 175t-72 178l70 74q105-106 107-254 0-144-107-246z m116-120q124 120 124 295t-124 299l77 74q154-154 154-372t-154-372z" horiz-adv-x="1000" />

<glyph glyph-name="volume-1" unicode="&#xe806;" d="M0 291l0 418 237 0 356 291 0-1000-356 291-237 0z m656 37q74 75 74 174 0 104-74 180l72 74q104-106 108-256 0-144-108-246z" horiz-adv-x="836" />

<glyph glyph-name="volume-off" unicode="&#xe807;" d="M0 702l305 0 345 281 0-965-345 279-229 0z m713-284q0 4 2 6l76 76-76 77q-2 1-2 6t2 5l53 53q1 2 5 2t6-2l76-76 77 76q4 2 6 2t5-2l55-53q2-2 2-5t-2-6l-76-77 76-76q2-4 2-6t-2-5l-55-55q-1-2-5-2t-6 2l-77 78-76-78q-1-2-5-2t-6 2l-53 55q-2 1-2 5z" horiz-adv-x="1000" />

<glyph glyph-name="search" unicode="&#xe808;" d="M11 525q-24 87 0 173t87 150q49 49 110 74t128 25q65 0 127-25t110-74q52-51 76-119t22-136-36-133q28-8 48-28l175-174q35-35 35-85t-35-85q-35-35-85-35t-85 35l-173 174q-22 21-30 50-70-36-149-36-66 0-128 25t-110 73q-65 64-87 151z m102 86q0-93 65-158 65-65 158-65 92 0 157 65t66 158-66 158q-66 65-157 65-93 0-158-65-65-66-65-158z" horiz-adv-x="892.6" />

<glyph glyph-name="home" unicode="&#xe809;" d="M522 969q321-279 500-429 20-16 20-40 0-21-15-37t-37-15l-105 0 0-364q0-21-15-36t-36-16l-156 0q-21 0-37 16t-16 36l0 208-208 0 0-208q0-21-15-36t-37-16l-156 0q-21 0-37 16t-15 36l0 364-104 0q-21 0-37 15t-16 37 19 40z" horiz-adv-x="1041" />

<glyph glyph-name="sign-out" unicode="&#xe80a;" d="M63 458q0 118 57 218t157 157q23 17 40 15t16-28v-74q0-12-3-20t-7-12-10-6-8-5q-55-45-86-108t-31-137q0-63 25-120t66-100 100-67 121-25q64 0 122 25t99 67 67 99 25 121q0 73-31 136t-86 108q-1 1-7 4t-7 6-8 7-6 12-1 15v77q0 15 8 21t20 3 25-11q100-58 158-158t60-220q0-88-35-170t-94-139-139-93-170-35-170 35-139 93-93 139-35 170z m354 167v333q0 17 12 30t29 12h84q17 0 29-12t12-30v-333q0-17-12-29t-29-13h-84q-16 0-29 13t-12 29z" horiz-adv-x="1000" />

<glyph glyph-name="remove" unicode="&#xe80b;" d="M-83 521q0-8 5-15t15-6h292q9 0 15 6t6 15v42q0 8-6 15t-15 5h-292q-9 0-15-5t-5-15v-42z m125-458v97q0 33 8 51t33 30q201 117 292 156v156q-42 31-42 94v124q0 52 20 94t65 68 103 25 104-25 63-68 20-94v-124q0-63-41-93v-157q77-32 291-156 25-13 34-30t8-51v-97q0-10-6-15t-15-6h-916q-10 0-15 6t-6 15z" horiz-adv-x="1000" />

<glyph glyph-name="add" unicode="&#xe80c;" d="M-167 521v42q0 8 6 15t15 5h146v146q0 9 6 15t15 6h42q8 0 15-6t5-15v-146h146q9 0 15-5t6-15v-42q0-8-6-15t-15-6h-146v-146q0-9-5-15t-15-6h-42q-8 0-15 6t-6 15v146h-146q-9 0-15 6t-6 15z m209-458v97q0 33 8 51t33 30q201 117 292 156v156q-42 31-42 94v124q0 52 20 94t65 68 103 25 104-25 63-68 20-94v-124q0-63-41-93v-157q77-32 291-156 25-13 34-30t8-51v-97q0-10-6-15t-15-6h-916q-9 0-15 6t-6 15z" horiz-adv-x="1000" />

<glyph glyph-name="girl" unicode="&#xe80d;" d="M83 91q0 4 2 18t8 27 20 29 35 28q9 5 50 35t91 61 86 50v84l-103 39-87-131-95 97 144 48 58 107v167q0 55 26 102t74 77 108 29q54 0 100-29t74-77 34-102v-167l57-107 145-48-95-97-86 131-104-39v-84q37-19 86-50t91-61 51-35q20-12 35-28t19-29 8-26 3-20l-1-7v-20q0-10-7-15t-14-6h-792q-9 0-15 6t-6 15v20h0q0 3 0 8z" horiz-adv-x="1000" />

<glyph glyph-name="boy" unicode="&#xe80e;" d="M42 63v97q0 33 8 51t33 30q201 117 292 156v156q-42 31-42 94v124q0 52 20 94t65 68 103 25 104-25 63-68 20-94v-124q0-63-41-93v-157q77-32 291-156 25-13 34-30t8-51v-97q0-10-6-15t-15-6h-916q-9 0-15 6t-6 15z" horiz-adv-x="1000" />

<glyph glyph-name="register" unicode="&#xe80f;" d="M0 500q0 135 67 249t181 181 249 67 249-67 181-181 66-249-66-249-181-181-249-67-249 67-181 181-67 249z m152 0q0-142 101-244t244-101 243 101 102 244-102 243-243 102-244-102-101-243z m181-167v334h250l84-84v-83h-84v83h-166v-83h166v-83h-166v-84h-84z m250 0v84h84v-84h-84z" horiz-adv-x="1000" />

<glyph glyph-name="skull" unicode="&#xe810;" d="M80 638q0 9 1 35t6 50 16 58 32 63 51 59 74 50 104 34 136 13 136-12 104-35 74-50 51-60 32-61 16-59 6-50 1-35l-1-13-44-83-42-209-145-41-49-84h-277l-49 84-146 41-42 209-44 83q0 5-1 13z m128-388h42l125-125h250l125 125h42l-84-208h-41l-42-42h-250l-42 42h-41z m42 221q0-23 16-38t38-16h42q22 0 43 15t29 36l22 65q8 20-2 35t-34 15h-100q-21 0-38-15t-16-39v-58z m186-169q6-10 22-10h84q17 0 22 10t-4 24l-37 57q-9 13-23 13t-22-13l-38-57q-10-14-4-24z m124 231l23-65q7-21 28-36t43-15h42q22 0 38 16t16 38v58q0 22-16 39t-38 15h-100q-22 0-33-15t-3-35z" horiz-adv-x="1000" />

<glyph glyph-name="woman" unicode="&#xe811;" d="M42 63v50q0 44 47 70 12 6 126 48t160 65v97q-56 3-107 30t-75 54q-7 7-8 15t3 15 12 16 18 18 21 21 21 22q30 35 39 73t9 111q0 35 15 68t37 61 61 43 79 18q43 0 79-18t61-43 38-61 14-68q0-74 9-111t39-74q9-10 21-22t22-20 17-18 12-16 3-15-7-15q-25-28-76-54t-107-30v-97q47-23 161-65t126-48q23-13 35-30t11-40v-50q0-10-5-15t-15-6h-875q-9 0-15 6t-6 15z" horiz-adv-x="1000" />

<glyph glyph-name="man" unicode="&#xe812;" d="M42 63v100q0 32 8 50t33 30q201 116 292 155v105q-42 30-42 92v69q-35 14-59 29t-23 20q0 14 7 25t15 12h47l61 274q-1 10 4 14t15 0l100-28q8-3 21-4t22 3l99 32q9 3 15 0t3-13l62-278h46q10 0 16-12t7-25q0-6-23-20t-60-29v-69q0-62-41-92v-105q77-31 291-155 25-14 34-30t8-50v-100q0-10-6-15t-15-6h-916q-9 0-15 6t-6 15z" horiz-adv-x="1000" />

<glyph glyph-name="user-secret" unicode="&#xe813;" d="M322 143l53 250-53 71-72 36z m142 0l72 357-72-36-53-71z m89 564q0 1-1 3-6 4-54 4-40 0-93-11-4 0-12 0t-12 0q-54 11-93 11-48 0-54-4-1-2-1-3 0-10 1-15 2-2 4-4t5-6q1-2 4-12t4-11 4-10 5-9 5-7 7-8 7-6 10-4 12-2 13-1q20 0 34 6t17 17 8 19 7 17 9 7h7q7 0 10-7t7-17 8-19 17-17 34-6q7 0 13 1t12 2 10 4 7 6 7 8 5 7 5 9 4 10 3 11 5 12q1 4 5 6t4 4q1 5 1 15z m233-491q0-68-41-106t-108-38h-488q-67 0-108 38t-41 106q0 34 3 66t10 70 21 69 35 57 53 42l-50 123h119q-13 35-13 71 0 7 2 19-108 21-108 53 0 32 116 55 10 35 30 75t39 63q17 21 42 21 17 0 47-17t47-18 47 18 47 17q24 0 42-21 20-23 39-63t30-75q116-23 116-55 0-32-108-53 4-46-11-90h119l-46-125q35-19 60-55t37-80 16-84 5-83z" horiz-adv-x="857.1" />

<glyph glyph-name="login" unicode="&#xe814;" d="M661 500q0-14-11-25l-303-303q-11-11-25-11t-25 11-11 25v161h-250q-15 0-25 10t-11 25v215q0 14 11 25t25 10h250v160q0 15 11 25t25 11 25-11l303-303q11-11 11-25z m197 197v-394q0-65-48-113t-113-47h-179q-7 0-13 5t-5 13q0 2-1 11t0 15 2 13 6 11 11 3h179q36 0 62 27t27 62v394q0 36-27 62t-62 27h-174t-7 0-7 2-4 3-4 5-1 7q0 3-1 12t0 14 2 14 6 10 11 5h179q66 0 113-48t48-113z" horiz-adv-x="857.1" />

<glyph glyph-name="mute" unicode="&#xe815;" d="M151 473l-56-56q-23 56-23 119v72q0 14 10 25t26 10 25-10 10-25v-72q0-30 8-63z m622 335l-201-200v-72q0-74-53-126t-126-52q-30 0-61 10l-54-54q55-28 115-28 103 0 176 73t74 177v72q0 14 10 25t25 10 25-10 11-25v-72q0-123-82-215t-204-104v-74h144q14 0 25-10t11-25-11-26-25-10h-358q-14 0-25 10t-11 26 11 25 25 10h144v74q-70 7-132 45l-142-142q-6-6-12-6t-14 6l-45 46q-5 6-5 12t5 14l689 688q5 6 12 6t14-6l45-46q5-6 5-12t-5-14z m-212 75l-347-347v286q0 73 53 126t126 52q57 0 103-33t65-84z" horiz-adv-x="785.7" />

<glyph glyph-name="cancel" unicode="&#xe816;" d="M88 265l235 235-235 235 177 177 235-235 235 235 177-177-235-235 235-235-177-177-235 235-235-235z" horiz-adv-x="1000" />

<glyph glyph-name="settings" unicode="&#xe817;" d="M3 838q1 10 7 15l60 60q6 6 15 7t18-3l117-77q8-5 13-14t5-18l-1-22q-1-8 3-19t10-17l128-125-80-75-125 123q-6 6-17 10t-19 4l-22-1q-8-1-17 4t-15 13l-76 118q-4 7-4 17z m20-681q0 17 12 29l480 480q-27 82 4 162t109 123q40 22 80 31t83-1 82-37l-208-111 117-185 201 100q5-70-28-125t-93-88q-48-27-102-32t-101 13l-476-478q-13-11-30-11t-30 11l-88 90q-12 11-12 29z m491 112l147 154 267-245q7-5 7-14t-6-15l-146-146q-5-6-15-6t-14 7z" horiz-adv-x="1000" />

<glyph glyph-name="users" unicode="&#xe818;" d="M0 198q19 9 59 23t70 26 50 22q37 19 57 56t21 76q0 27-31 64-19 21-33 60-45 18-45 76 0 42 14 61-5 39-9 82-5 55 26 108t84 84 110 32q44 0 85-19t73-50 48-72 14-83q-5-56-8-82 14-19 14-61 0-58-45-76-15-41-32-60-33-37-33-64 0-39 21-76t58-56q30-15 92-38t113-43 66-38q18-17 28-47t11-50l0-22h-878v167z m705 300q0 35 12 50-5 32-7 67-4 45 22 89t68 72 90 27 89-27 69-72 22-89q-2-35-7-67 11-15 11-50 0-48-36-62-11-33-27-50-8-10-13-16t-9-16-4-20q0-31 17-62t46-46q19-8 44-18t59-23 50-18v-136h-253q0 4-1 11t-3 26-7 36-14 38-24 33q-23 25-53 44t-79 37q27 34 27 78 0 9-5 20t-8 16-13 16q-13 15-26 49-37 17-37 63z" horiz-adv-x="1201.2" />

<glyph glyph-name="wrench" unicode="&#xe819;" d="M0 171l463 462q-25 69-10 146t72 134 133 72 147-10l-162-162 45-117 115-45 164 164q26-70 9-147t-73-133-132-72-148 9l-463-464z m113-3q0-19 14-32t33-14 33 14 14 32-14 34-33 14-33-14-14-34z" horiz-adv-x="982" />

<glyph glyph-name="quote-left" unicode="&#xe81a;" d="M428 464v-214q0-45-30-76t-76-31h-214q-45 0-77 31t-31 76v393q0 58 23 110t60 92 92 61 111 22h36q14 0 25-10t11-25v-71q0-15-11-25t-25-11h-36q-59 0-101-42t-42-101v-18q0-22 15-38t39-15h125q44 0 76-32t30-76z m500 0v-214q0-45-30-76t-76-31h-214q-45 0-77 31t-31 76v393q0 58 23 110t60 92 92 61 111 22h36q14 0 25-10t11-25v-71q0-15-11-25t-25-11h-36q-59 0-101-42t-42-101v-18q0-22 15-38t39-15h125q44 0 76-32t30-76z" horiz-adv-x="928.6" />

<glyph glyph-name="heart" unicode="&#xe81b;" d="M500 72q-14 0-25 10l-347 336q-6 4-16 14t-31 36-38 55-30 67-13 78q0 122 71 191t196 69q35 0 71-11t66-33 54-38 42-38q20 20 43 38t53 38 67 33 70 11q125 0 196-69t71-191q0-124-127-251l-349-335q-10-10-24-10z" horiz-adv-x="1000" />

<glyph glyph-name="webrtc-fullscreen" unicode="&#xe81c;" d="M350 433h-67v-166h167v66h-100v100z m-67 134h67v100h100v66h-167v-166z m400-234h-100v-66h167v166h-67v-100z m-100 400v-66h100v-100h67v166h-167z" horiz-adv-x="1000" />

<glyph glyph-name="volume-3" unicode="&#xe81d;" d="M0 319l0 359 203 0 307 250 0-857-307 248-203 0z m563 34q62 62 62 150t-62 152l60 64q90-89 92-218 0-125-92-213z m101-106q105 106 105 256t-105 258l66 62q132-133 132-320t-132-320z m99-98q147 147 147 354t-147 353l63 65q82-83 128-190t46-228-46-228-128-190z" horiz-adv-x="1000" />

<glyph glyph-name="webrtc-minimizedscreen" unicode="&#xe81e;" d="M283 367h100v-100h67v166h-167v-66z m100 266h-100v-66h167v166h-67v-100z m200-366h67v100h100v66h-167v-166z m67 366v100h-67v-166h167v66h-100z" horiz-adv-x="1000" />

<glyph glyph-name="sign-in" unicode="&#xe81f;" d="M-83 438q0-10 5-15t15-6h230v-103q0-9 5-11t11 4l218 181q7 5 7 14t-7 13l-218 179q-7 5-11 4t-5-11v-104h-230q-9 0-15-5t-5-15v-125z m333-271q0-17 13-29t29-13h166v-83q0-21 17-34 12-8 25-8 6 0 11 1l458 125q1 0 1 1t2 1 1 0q2 0 5 2 4 3 7 5 2 2 4 4 3 3 6 9 1 2 3 4 2 8 2 15v750q0 8-4 17-1 1-1 2t-2 2q-5 7-8 10l-2 2q0 0-3 1-5 4-10 5l-7 2q0 0-2 0t-3 0h-666q-17 0-29-12t-13-29v-192l208-172v-104l-208-174v-108z m292-71v664l375 103v-665z" horiz-adv-x="1000" />

<glyph glyph-name="clear" unicode="&#xe820;" d="M0 125v833q0 17 13 30t29 12h208v-250h417v250h83l167-167v-224l-86-86-142 142-248-248h-274v-334h-125q-18 0-29 12t-13 30z m500 708h83v167h-83v-167z m83-722l142 142-142 141 106 106 142-142 142 142 105-107-141-140 141-142-105-106-142 142-142-142z" horiz-adv-x="1000" />

<glyph glyph-name="webrtc-video" unicode="&#xe821;" d="M896 280h-791c-56 0-99 39-99 89v536c0 50 43 89 99 89h791c54 0 99-39 99-89v-536c0-50-45-89-99-89z m-99 535l-198-142v142h-395v-356h395v142l198-142z" horiz-adv-x="1000" />

<glyph glyph-name="webrtc-novideo" unicode="&#xe822;" d="M713 700h-305l100-100h55v-54l14-15 86 69v-154l99-100 1 4v300c0 28-23 50-50 50z m-444 75l-31-32 50-50c-15-8-25-24-25-43v-300c0-28 22-50 50-50h368l50-50 32 32-494 493z m94-175h18l182-182v-18h-200v200z" horiz-adv-x="1000" />

<glyph glyph-name="videocam" unicode="&#xe823;" d="M1000 804v-608q0-23-22-32-7-3-14-3-15 0-25 10l-225 225v-92q0-67-47-114t-113-47h-393q-67 0-114 47t-47 114v392q0 67 47 114t114 47h393q66 0 113-47t47-114v-92l225 225q10 10 25 10 7 0 14-2 22-10 22-33z" horiz-adv-x="1000" />

<glyph glyph-name="phone" unicode="&#xe824;" d="M786 308q0-15-6-39t-12-38q-11-28-68-60-52-28-103-28-15 0-30 2t-32 7-26 8-31 11-28 10q-54 20-97 47-71 44-148 120t-120 148q-27 43-46 97-2 5-10 28t-12 31-8 26-7 32-2 29q0 52 29 104 31 57 59 68 14 6 38 12t39 6q8 0 12-2 10-3 30-42 6-11 16-31t20-35 17-30q2-2 10-14t12-20 4-16q0-11-16-27t-35-31-34-30-16-25q0-5 3-13t4-11 8-14 7-10q42-77 97-132t131-97q1 0 10-6t14-8 11-5 13-2q10 0 25 16t30 34 31 35 28 16q7 0 15-4t20-12 14-10q14-8 30-17t36-20 30-17q39-19 42-29 2-4 2-12z" horiz-adv-x="785.7" />

<glyph glyph-name="mic-1" unicode="&#xe825;" d="M643 607v-71q0-124-82-215t-204-104v-74h143q15 0 25-11t11-25-11-25-25-11h-357q-15 0-25 11t-11 25 11 25 25 11h143v74q-121 13-204 104t-82 215v71q0 15 11 25t25 11 25-11 10-25v-71q0-103 74-177t176-73 177 73 73 177v71q0 15 11 25t25 11 25-11 11-25z m-143 214v-285q0-74-52-126t-127-53-126 53-52 126v285q0 74 52 127t126 52 127-52 52-127z" horiz-adv-x="642.9" />

<glyph glyph-name="chart-bar" unicode="&#xe826;" d="M357 500v-286h-143v286h143z m214 286v-572h-142v572h142z m572-643v-72h-1143v858h71v-786h1072z m-357 500v-429h-143v429h143z m214 214v-643h-143v643h143z" horiz-adv-x="1142.9" />

<glyph glyph-name="chart-area" unicode="&#xe827;" d="M1143 143v-72h-1143v858h71v-786h1072z m-214 571l142-500h-928v322l250 321 321-321z" horiz-adv-x="1142.9" />

<glyph glyph-name="chart-pie" unicode="&#xe828;" d="M429 503l304-304q-59-61-138-94t-166-34q-117 0-216 58t-155 156-58 215 58 215 155 156 216 58v-426z m104-3h431q0-88-33-167t-94-138z m396 71h-429v429q117 0 215-57t156-156 58-216z" horiz-adv-x="1000" />

<glyph glyph-name="chart-line" unicode="&#xe829;" d="M1143 143v-72h-1143v858h71v-786h1072z m-72 696v-242q0-12-10-17t-20 4l-68 68-353-353q-6-6-13-6t-13 6l-130 130-232-233-107 108 327 326q5 6 12 6t13-6l130-130 259 259-67 68q-9 8-5 19t17 11h243q7 0 12-5t5-13z" horiz-adv-x="1142.9" />

<glyph glyph-name="smile" unicode="&#xe82a;" d="M633 400q-21-67-77-109t-127-41-128 41-77 109q-4 14 3 27t21 18q14 4 27-2t17-22q14-44 52-72t85-28 84 28 52 72q4 15 18 22t27 2 21-18 2-27z m-276 243q0-30-21-51t-50-21-51 21-21 51 21 50 51 21 50-21 21-50z m286 0q0-30-21-51t-51-21-50 21-21 51 21 50 50 21 51-21 21-50z m143-143q0 73-29 139t-76 114-114 76-138 28-139-28-114-76-76-114-29-139 29-139 76-113 114-77 139-28 138 28 114 77 76 113 29 139z m71 0q0-117-57-215t-156-156-215-58-216 58-155 156-58 215 58 215 155 156 216 58 215-58 156-156 57-215z" horiz-adv-x="857.1" />

<glyph glyph-name="snow-heavy-inv" unicode="&#xe82b;" d="M0 656q0 90 64 154t155 65q17 0 31-2 43 61 109 93 68 33 141 33t140-33q66-32 110-93 13 2 31 2 90 0 154-65t64-154-64-154-154-65q-42 0-78 14-88-76-203-76t-203 76q-37-14-78-14-90 0-155 65t-64 154z m60-392q-5 19 14 25l24 6q0 12 6 21l-18 18q-14 14 0 28 14 15 29 1l18-17q9 3 21 5l6 24q6 19 25 13t14-25l-6-23q5-3 8-6 4-5 8-10l23 8q20 3 26-16 6-19-16-25l-23-6q0-12-6-21l17-18q16-14 1-28-14-15-30-1l-16 17q-11-3-21-6l-8-23q-4-20-24-15-21 5-15 27l6 23q-7 4-16 16l-23-8q-20-3-24 16z m84 11q14-13 29 0 14 14-1 28-14 15-28 1-15-15 0-29z m204-163q3 15 15 21l35 21q-3 19 0 37l-35 20q-12 8-15 21t2 27q7 12 21 16t27-4l35-21q14 14 32 19v41q0 14 10 25t25 11 24-11 11-25v-41q17-5 31-19l35 21q14 8 28 4t20-16q7-13 3-27t-16-21l-35-20q4-18 0-37l35-21q12-6 16-21t-3-26q-7-12-21-16t-27 4l-35 20q-14-12-31-18v-41q0-15-11-25t-24-10-25 10-10 25v41q-17 6-32 18l-35-20q-13-7-27-4t-21 16q-6 12-2 26z m117 61q0-15 10-25t25-9 23 9q12 10 12 25t-11 24-24 10-25-10-10-24z m277 81q6 19 25 13l24-5q3 5 7 9 3 3 8 6l-6 24q-5 19 14 25t25-14l6-23q12-2 22-6l17 18q15 13 30-1 13-15 0-29l-18-17q6-10 6-22l23-6q20-5 15-25-5-19-24-16l-24 8q-8-12-16-15l6-24q6-21-14-26-21-5-25 15l-7 23q-13 2-22 6l-16-18q-15-13-30 1-14 14 1 29l18 17q-6 9-6 22l-24 5q-21 6-15 26z m85-41q14-14 29 0 14 13-1 27-14 16-28 1-15-15 0-28z" horiz-adv-x="1000" />

<glyph glyph-name="phone-circled" unicode="&#xe82c;" d="M0 500q0 207 147 354t353 146 354-146 146-354-146-353-354-147-353 147-147 353z m199 162q-4-51 41-142 71-133 229-248 107-71 193-73 29 0 47 16l84 86q10 10 8 23t-16 24l-123 72q-19 12-45-6l-35-37q-6-6-18-2-11 2-24 8t-25 16-21 16-21 21-20 17q-64 61-80 119 0 4 4 10l31 31q18 18 8 43l-68 129q-12 18-28 16-9 0-19-8l-84-86q-18-16-18-45z" horiz-adv-x="1000" />

<glyph glyph-name="hang-up" unicode="&#xe82d;" d="M906 656c-16 11-35 21-55 30l-67 24c-69 20-151 32-240 34-1 0-2 0-2 0-1 0-2 0-3 0-152 0-364-30-442-80-57-31-96-91-97-161 0-31 7-60 20-86 5-13 18-22 33-22l263-2c14-1 26 7 32 19l0 0c14 26 23 56 23 88 0 21-3 42-10 61 32 3 145 3 179 3 35-1 68-3 100-6-7-20-11-40-11-62 0-31 8-62 22-88l0 0c5-11 17-20 31-20l264-2c14 0 27 9 32 22 14 25 22 54 22 85 1 70-37 131-94 163z m-407-135c-13 0-23-10-23-23l0-152-22 27c-11 14-28 18-38 10-10-9-10-26 1-40l57-71c2-2 4-4 7-6 4-6 10-9 18-9 6 0 11 2 15 5 4 2 8 6 12 10l57 71c11 13 12 31 1 39-10 9-27 5-38-9l-24-29 0 154c0 13-10 23-23 23z" horiz-adv-x="1000" />

<glyph glyph-name="no-videocam" unicode="&#xe82e;" d="M1000 763l-210-210v184c0 29-24 53-53 53h-325l588-589v562z m-933 237l-67-67 143-143h-38c-29 0-52-24-52-53v-526c0-29 23-53 52-53h632c11 0 20 4 29 10l167-168 67 67-933 933z" horiz-adv-x="1000" />

<glyph glyph-name="call-aswer" unicode="&#xe82f;" d="M854 99c11 13 13 31 4 46l-152 270c-8 14-23 22-38 21l0 0c-35-1-70-10-103-28-22-12-41-28-57-46-21 31-42 65-62 100-20 35-38 71-53 105 24 4 47 13 69 25 33 18 59 44 77 73l0 0c9 13 10 30 2 44l-152 270c-8 15-25 23-41 21-34-1-68-10-100-28-71-40-111-115-111-191-7-109 36-265 123-421 0 0 1-1 1-2 1-1 1-1 1-2 52-91 112-169 172-228l62-55c21-16 42-30 62-40 65-41 149-45 221-5 31 18 57 42 75 71z m-143 390c14-7 33 3 41 22l43 98c3 6 4 12 4 18 1 6 1 13-2 19-4 7-12 12-20 14-3 1-6 3-10 3l-105 22c-20 4-38-5-42-20-3-16 11-31 31-35l40-9-159-81c-13-7-18-23-11-37 7-13 23-18 36-11l161 83-18-41c-8-19-3-39 11-45z" horiz-adv-x="1000" />

<glyph glyph-name="spin1" unicode="&#xe830;" d="M496 1000c-176 0-331-90-421-226-18-27-33-55-46-85-12-29-21-60-28-92 0 0 0-1 0-1l0 0 0 0c0-1 0-2 0-2 0-7 5-12 11-12l101 0c5 0 10 4 11 9 29 113 109 206 214 253 20 10 41 17 63 23 31 7 62 11 95 11l0 0 0 0 0 0c25 0 50-2 74-7 5-1 10-2 14-3 6-1 10-3 14-4l0 0c5-1 11 1 13 6l51 87c0 0 1 1 1 2 2 6-1 13-7 15-22 7-43 13-65 17-5 1-9 1-13 2-27 5-54 7-82 7l0 0 0 0z m327-114c-5 0-9-2-11-6l-50-87c-3-4-2-10 2-14 29-29 54-63 73-101 4-7 7-14 11-22 19-46 30-97 30-151l0 0 0 0c0-77-22-149-62-209-7-11-15-23-24-33-9-11-18-21-28-31l0 0 0 0 0 0c-4-4-5-10-2-14l50-87c0-1 1-2 2-3 4-4 11-5 16-1 58 52 104 117 134 190 6 15 11 29 15 44 14 46 21 94 21 144 0 108-34 209-92 291-11 16-23 31-37 46-13 14-26 28-41 41l0 0c-1 1-1 1-2 1-2 1-4 2-5 2z m-811-468l0 0c-1 0-2 0-3 0-6-1-10-8-9-14 34-166 149-302 302-365 30-13 61-22 93-29 32-6 66-10 100-10l0 0 0 0c40 0 79 5 117 14 7 2 14 3 22 6 6 1 13 4 20 6 1 0 2 1 3 1 6 3 8 10 4 16l-50 87c-3 5-8 7-13 6-14-4-28-7-42-9-3-1-6-1-8-2-18-2-35-3-53-3l0 0 0 0c-128 0-242 63-311 160-1 0-1 0-1 0-13 19-25 40-35 61-10 21-18 43-24 65-1 6-6 10-11 10l-101 0z" horiz-adv-x="1000" />

<glyph glyph-name="key" unicode="&#xe831;" d="M774 762q20-116-28-215t-150-117q-66-12-130-2l-118-194-70-12-104-166q-14-28-46-32l-76-14q-12-4-22 4t-12 22l-16 98q-8 30 12 56l258 386q-24 50-38 120-18 106 53 187t185 101q106 20 195-45t107-177z m-126-76q30 44 21 97t-51 83q-42 32-92 22t-80-54q-8-12-12-23t-1-20 5-16 13-17 18-15 22-16 23-17q6-4 22-16t23-16 19-12 19-8 17 1 18 8 16 19z" horiz-adv-x="780" />

<glyph glyph-name="lock" unicode="&#xe832;" d="M582 587v-356q0-32-32-32h-518q-32 0-32 32v356q0 10 3 17t7 10 12 5 13 2 16 0 14-1v127h1q9 87 74 141t153 53 151-62 71-152h1l2-107q4 0 15 1t15 0 13-2 12-5 6-10 3-17z m-161 162q0 51-37 74t-91 23q-53 0-92-25t-39-77v-124h259v129z" horiz-adv-x="582" />

<glyph glyph-name="user-pair" unicode="&#xe833;" d="M903 336c0 32-25 68-25 68s-3-13-18-7c-14 7-27 26-31 42-1 15-14 43-19 49-5 10-1 30 23 33 0 0-9 18-2 27 0 0-25-1-13 21 0 0-52 18-9 59 0 0-28 29 5 34 0 0-48 54 16 76 0 0-57 141 48 148 55 7 92-27 142-48 0 0 69 56 108 49 68-14 88-81 48-140 43 11 58-55 24-80 0 0 20-23 0-48 0 0 30-42-7-60 0 0-7-25-15-36 0 0 16 3 21-10 6-15 9-27-4-47-12-19-15-32-20-43-4-10-7-41-35-24-37-46-50-120-25-185l6-11c87-17 192-36 242-57l0-58-700 0 0 3-663 0s5 62 58 88c53 27 255 84 270 90l1 47 20 5s6 75 6 85c0 0-29 60-36 92 0 0-25 0-29 28-2 26 0 42-5 61-4 19 10 39 23 35 0 0-27 134 0 172 18 27 73 93 206 117 0 0 32 2 44-2 8-2 7-5-10-22 0 0 68-43 90-110 15-41 8-131 0-155 0 0 21 4 18-21-3-40-6-115-33-103 0 0-2-81-28-99 0 0-6-66 5-68l16 0s8-54 20-68c0 0 62-25 132-41 30-8 67-10 106-9 12 34 30 41 29 123z" horiz-adv-x="1363" />

<glyph glyph-name="plus-squared" unicode="&#xe834;" d="M714 464v72q0 14-10 25t-25 10h-179v179q0 15-11 25t-25 11h-71q-15 0-25-11t-11-25v-179h-178q-15 0-25-10t-11-25v-72q0-14 11-25t25-10h178v-179q0-14 11-25t25-11h71q15 0 25 11t11 25v179h179q14 0 25 10t10 25z m143 304v-536q0-66-47-113t-114-48h-535q-67 0-114 48t-47 113v536q0 66 47 113t114 48h535q67 0 114-48t47-113z" horiz-adv-x="857.1" />

<glyph glyph-name="webrtc-mic" unicode="&#xe835;" d="M513 425c41 0 74 34 74 75l1 150c0 42-34 75-75 75-42 0-75-33-75-75v-150c0-41 33-75 75-75z m132 75c0-75-63-127-132-127-69 0-133 52-133 127h-42c0-85 68-156 150-168v-82h50v82c82 12 150 83 150 168h-43z" horiz-adv-x="1000" />

<glyph glyph-name="plus" unicode="&#xe836;" d="M786 589v-107q0-22-16-38t-38-15h-232v-233q0-22-16-37t-38-16h-107q-22 0-38 16t-15 37v233h-232q-23 0-38 15t-16 38v107q0 23 16 38t38 16h232v232q0 22 15 38t38 16h107q23 0 38-16t16-38v-232h232q23 0 38-16t16-38z" horiz-adv-x="785.7" />

<glyph glyph-name="webrtc-nomic" unicode="&#xe837;" d="M688 500h-43c0-19-4-36-11-51l31-31c14 24 23 52 23 82z m-101-4c0 1 1 3 1 4v150c0 42-34 75-75 75s-75-33-75-75v-5l149-149z m-268 204l-31-32 150-150v-18c0-41 33-75 75-75 5 0 11 1 16 2l41-42c-18-8-37-13-57-13-69 0-133 53-133 128h-42c0-85 68-156 150-168v-82h50v82c22 3 44 11 63 23l105-105 32 32-419 418z" horiz-adv-x="1000" />

<glyph glyph-name="picture" unicode="&#xe838;" d="M357 679q0-45-31-76t-76-32-76 32-31 76 31 76 76 31 76-31 31-76z m572-215v-250h-786v107l178 179 90-89 285 285z m53 393h-893q-7 0-12-5t-6-13v-678q0-7 6-13t12-5h893q7 0 13 5t5 13v678q0 8-5 13t-13 5z m89-18v-678q0-37-26-63t-63-27h-893q-36 0-63 27t-26 63v678q0 37 26 63t63 27h893q37 0 63-27t26-63z" horiz-adv-x="1071.4" />

<glyph glyph-name="user" unicode="&#xe839;" d="M714 219q0-60-35-104t-84-44h-476q-49 0-84 44t-35 104q0 48 5 90t17 85 33 73 52 50 76 19q73-72 174-72t175 72q42 0 75-19t52-50 33-73 18-85 4-90z m-143 495q0-88-62-151t-152-63-151 63-63 151 63 152 151 63 152-63 62-152z" horiz-adv-x="714.3" />

<glyph glyph-name="cancel-circled-outline" unicode="&#xe83a;" d="M469 969q194 0 331-137t138-332-138-331-331-137-331 137-138 331 138 332 331 137z m0-834q151 0 258 107t107 258-107 258-258 107-258-107-107-258 107-258 258-107z m36 365l139-137q12-13 5-29t-24-16q-11 0-19 7l-137 139-138-139q-7-7-18-7-17 0-24 16t5 29l139 137-139 138q-18 17 1 36t36 1l138-138 137 138q18 18 37-1t1-36z" horiz-adv-x="938" />

<glyph glyph-name="angle-circled-down" unicode="&#xe83b;" d="M454 275l253 254q11 10 11 25t-11 25l-57 57q-10 10-25 10t-25-10l-171-172-172 172q-10 10-25 10t-25-10l-57-57q-10-11-10-25t10-25l254-254q10-10 25-10t25 10z m403 225q0-117-57-215t-156-156-215-58-216 58-155 156-58 215 58 215 155 156 216 58 215-58 156-156 57-215z" horiz-adv-x="857.1" />

<glyph glyph-name="angle-circled-up" unicode="&#xe83c;" d="M650 364l57 57q11 11 11 25t-11 26l-253 253q-11 11-25 11t-25-11l-254-253q-10-11-10-26t10-25l57-57q11-10 25-10t25 10l172 172 171-172q11-10 25-10t25 10z m207 136q0-117-57-215t-156-156-215-58-216 58-155 156-58 215 58 215 155 156 216 58 215-58 156-156 57-215z" horiz-adv-x="857.1" />

<glyph glyph-name="brush-1" unicode="&#xe83d;" d="M464 352q0-124-87-211t-210-87q-81 0-149 40 68 39 109 107t40 151q0 61 44 105t105 44 105-44 43-105z m415 562q32-32 32-79t-33-79l-318-318q-20 55-61 97t-97 62l318 318q32 32 79 32t80-33z" horiz-adv-x="928" />

<glyph glyph-name="trash-circled" unicode="&#xe83e;" d="M0 500q0 207 147 354t353 146 354-146 146-354-146-353-354-147-353 147-147 353z m242 178l516 0 0 88-180 0 0 47-156 0 0-47-180 0 0-88z m28-490l460 0 0 421-460 0 0-421z" horiz-adv-x="1000" />

<glyph glyph-name="send" unicode="&#xe83f;" d="M661 500q0-14-11-25l-303-304q-11-10-26-10t-25 10-10 25v161h-250q-15 0-25 11t-11 25v214q0 15 11 25t25 11h250v161q0 14 10 25t25 10 26-10l303-304q11-10 11-25z m196 196v-392q0-67-47-114t-114-47h-178q-7 0-13 5t-5 13q0 2-1 11t0 15 2 13 5 11 12 3h178q37 0 64 27t26 63v392q0 37-26 64t-64 26h-174t-6 0-6 2-5 3-4 5-1 8q0 2-1 11t0 15 2 13 5 11 12 3h178q67 0 114-47t47-114z" horiz-adv-x="857.1" />

<glyph glyph-name="popup" unicode="&#xe840;" d="M1091 1000v-636h-273v-364h-818v636h273v364h818z m-273-545h182v363h-636v-182h454v-181z m-727-364h636v364h-636v-364z" horiz-adv-x="1091" />

<glyph glyph-name="zoom-out" unicode="&#xe841;" d="M0 553q0 185 131 316t316 131 318-131 131-316q0-141-82-256l186-186-111-111-186 186q-115-82-256-82-185 0-316 131t-131 318z m127 0q0-133 94-227t226-93 227 93 94 227-94 225-227 93-226-93-94-225z m129-65l0 127 385 0 0-127-385 0z" horiz-adv-x="1000" />

<glyph glyph-name="zoom-in" unicode="&#xe842;" d="M0 553q0 185 131 316t316 131 318-131 131-316q0-141-82-256l186-186-111-111-186 186q-115-82-256-82-185 0-316 131t-131 318z m127 0q0-133 94-227t226-93 227 93 94 227-94 225-227 93-226-93-94-225z m129-65l0 127 129 0 0 129 127 0 0-129 129 0 0-127-129 0 0-129-127 0 0 129-129 0z" horiz-adv-x="1000" />

<glyph glyph-name="resize" unicode="&#xe843;" d="M0 0l0 441 148-148 202 201 144-144-201-201 148-149-441 0z m506 650l201 202-148 148 441 0 0-441-148 148-202-201z" horiz-adv-x="1000" />

<glyph glyph-name="redo" unicode="&#xe844;" d="M857 857v-250q0-14-10-25t-26-11h-250q-23 0-32 23-10 22 7 38l77 77q-82 77-194 77-58 0-111-23t-91-61-61-91-23-111 23-111 61-91 91-61 111-23q66 0 125 29t100 82q4 6 13 7 8 0 14-5l76-77q5-4 6-11t-5-13q-60-74-147-114t-182-41q-87 0-167 35t-136 91-92 137-34 166 34 166 92 137 136 92 167 34q82 0 158-31t137-88l72 72q17 18 39 8 22-9 22-33z" horiz-adv-x="857.1" />

<glyph glyph-name="fill" unicode="&#xe845;" d="M444 894l-75-69-144 150c-37 31-100 31-137 0-13-19-25-44-25-69s12-50 25-68l150-150-238-232 400-400 438 444-394 394z m-313-13c0 7-6 19-6 25s6 19 6 25c13 7 38 7 50 0l150-150-50-43-150 143z m0-381l238 238 75-75c6-7 12-7 25-7s19 0 25 7c6 12 6 31-6 43l-75 75 25 25 312-306h-619z m713-62c0 0-94-294-94-344s44-94 94-94 94 44 94 94-94 344-94 344z" horiz-adv-x="1000" />

<glyph glyph-name="paint-bucket" unicode="&#xe846;" d="M988 132c-5 17-18 30-41 38-12 4-27 7-42 10-12 2-25 5-35 8-1 0-2 1-3 1 2 3 5 5 7 8 11 10 22 21 30 34 14 24 13 49-4 67 0 0-16 18-48 18-8 0-18-1-27-4 1 16 0 32 0 47-3 78-16 127-41 154 0 59-24 148-64 235-60 134-141 231-190 231-5 0-9-1-13-3-1 0-1-1-2-1l-24-11c-18 6-54 18-93 26-29 7-55 10-76 10-35 0-58-9-71-28-6-10-12-26-6-49 1-5 3-10 6-15 24-55 138-145 265-210 2-2 6-2 9-1 2 0 5 1 7 1 14 0 27-8 32-21 4-8 4-18 1-27-3-8-10-15-18-19-5-2-10-3-15-3-13 0-26 8-31 20-2 3-2 6-3 8-1 5-3 8-7 10-100 52-193 118-247 175-4 5-10 6-15 3l-212-96c-5-2-8-8-7-14 4-29 21-136 83-272 62-136 131-219 151-241 4-4 10-6 15-3l441 201c1-4 1-8 2-13 4-28 8-59 8-85 0-18-2-28-4-34l0 0c-5 1-11 2-17 3-13 2-26 4-39 4-30 0-45-14-51-26-16-27-1-62 15-88-9-3-21-5-29-6-11-2-24-4-34-8-20-6-33-17-38-32-5-11-6-30 11-52 24-29 57-50 100-64 35-12 77-18 121-18 42 0 84 6 122 16 28 8 67 22 92 46 11 10 39 37 29 70z m-324 32c3 7 1 15-5 26-15 26-20 44-15 53 1 2 4 7 19 7 9 0 19-1 29-3 9-2 18-3 25-3 4 0 7 0 10 1 1 1 3 2 4 3 24 25 19 97 11 169-3 25-6 45-3 49 1 0 1 0 2 0 23-7 37-49 42-122 2-30 1-60 1-79 0-5 2-9 6-11 4-3 9-2 12 1 9 7 23 15 37 15 7 0 14-2 20-6l0 0c10-12 1-25-22-49-15-16-22-24-23-32 0-2 0-4 1-6 7-19 36-25 65-30 23-5 46-10 49-22 2-8-4-18-17-32-29-28-97-48-166-48-77 0-138 23-169 63-5 7-7 13-6 17 4 9 22 13 41 16 27 5 46 9 52 23z m-54 534c-24 54-43 109-52 156-3 16-5 31-6 44h0c10-9 20-20 30-33 29-38 58-88 83-142s43-109 52-156c4-16 5-31 6-44-9 9-19 20-29 33-30 38-59 88-84 142z m-326 253c2 3 10 10 38 10 18 0 41-3 68-9 14-4 30-8 47-13l-121-55c-14 15-24 28-29 40-2 3-3 6-4 9-2 8-1 13 1 18z" horiz-adv-x="1000" />

<glyph glyph-name="selection" unicode="&#xe847;" d="M956 110h44v-110h-110v44h66v66z m-690-110h156v44h-156v-44z m312 0h156v44h-156v-44z m-534 110h-44v-110h110v44h-66v66z m0 312h-44v-156h44v156z m0 312h-44v-156h44v156z m-44 156h44v66h66v44h-110v-110z m422 110h-156v-44h156v44z m156-44h156v44h-156v-44z m312 44v-44h66v-66h44v110h-110z m66-734h44v156h-44v-156z m0 312h44v156h-44v-156z" horiz-adv-x="1000" />

<glyph glyph-name="github" unicode="&#xe848;" d="M0 153q0-63 62-108t150-45 151 45 62 108q0 64-62 109t-151 45q-1 0-3 0t-3-1q-24 22-24 48t24 53q71 4 120 55t49 121q0 28-7 50 28 5 44 14l0 115q-48-32-109-32l-7 0q-46 31-101 31-75 0-128-52t-53-126q0-47 24-87t64-64q-28-36-28-74 0-36 26-75-46-21-73-55t-27-75z m121 432q0 33 22 57t50 23q30 0 51-23t21-57-21-56-51-24q-29 0-50 24t-22 56z m3-432q0 27 26 46t62 18 63-18 26-46q0-26-26-45t-63-19-62 19-26 45z m331 766q0 34 24 58t57 23 58-23 24-58-24-58-58-24-57 24-24 58z m19-647l0 479 134 0 0-479-134 0z m181 377l55 0 0-285q4-30 20-51t34-32 38-16 30-7l20 0q27 0 48 8 23 8 30 16l7 9 2 99q-42-13-65-13-5 0-9 1-23 3-27 16l-4 13q0 3-1 4l0 238 91 0 0 102-91 0 0 93-123 0 0-93-55 0 0-102z" horiz-adv-x="939" />

<glyph glyph-name="undo" unicode="&#xe849;" d="M857 500q0-87-34-166t-91-137-137-91-166-35q-96 0-183 41t-147 114q-4 6-4 13t5 11l76 77q6 5 14 5 9-1 13-7 41-53 100-82t126-29q58 0 110 23t92 61 61 91 22 111-22 111-61 91-92 61-110 23q-55 0-105-20t-90-57l77-77q17-16 8-38-10-23-33-23h-250q-15 0-25 11t-11 25v250q0 24 22 33 22 10 39-8l72-72q60 57 137 88t159 31q87 0 166-34t137-92 91-137 34-166z" horiz-adv-x="857.1" />

<glyph glyph-name="random-selection" unicode="&#xe84a;" d="M499 920l-65-4 3-40 41 3-5-73 40-3 7 96 2 23z m-304-20l3-40 159 11-2 40z m-74-248l39-9 36 156-39 9z m336-85l40-3 11 160-40 2z m288 13l-137-70 18-36 137 70-6 12 18 9-3 5-8 19z m-657-67l-1-2 0-2-1-97 40-1 1 95 14 59-39 9z m684-38l68-145 36 17-67 145z m-326-58l-2-36 31 16 80 41-18 36-48-25 2 35-40 3z m-365-245l40-1 3 160-40 1z m792 85l14-29-79-44 19-35 96 53 16 9-8 17-21 46z m-178-137l-100-1 0-40 105 1 5 0 5 3 48 27-20 34z m-340-5l0-40 160 2 0 40z m-240-3l0-40 160 2 0 40z" horiz-adv-x="1000" />

<glyph glyph-name="no-desktop" unicode="&#xe84b;" d="M102 482l-1 333c23 31 76 8 111 15 216 1 432 1 648 2 27-15 11-53 15-79 0-108 1-222 2-330-19-23-73-8-107-15-201-4-403-1-604-5 230 126 472 230 698 363 21 2 72 16 26 28-34 12 54 53-4 51-61-4-92-30-146-53-202-96-418-210-623-305l-7-3z m-60 333c1-174-1-348 2-522 11-54 73-65 119-59l207 1c2-39-65-115 10-119 78 0 156 0 234 1 57 25-18 81-1 118 87 2 176-2 264 2 54 11 65 73 58 119-1 159 1 318-2 476-9 51-66 66-110 59-241-1-481 0-722-3-33-6-61-39-59-73z" horiz-adv-x="1000" />

<glyph glyph-name="user-plus" unicode="&#xe84c;" d="M393 500q-89 0-152 63t-62 151 62 152 152 63 151-63 63-152-63-151-151-63z m536-71h196q7 0 13-6t5-12v-107q0-8-5-13t-13-5h-196v-197q0-7-6-12t-12-6h-107q-8 0-13 6t-5 12v197h-197q-7 0-12 5t-6 13v107q0 7 6 12t12 6h197v196q0 7 5 13t13 5h107q7 0 12-5t6-13v-196z m-411-125q0-29 21-51t50-21h143v-133q-38-28-95-28h-488q-67 0-108 39t-41 106q0 30 2 58t8 61 15 60 24 55 34 45 48 30 62 11q11 0 22-10 44-34 86-51t92-17 92 17 86 51q11 10 22 10 73 0 121-54h-125q-29 0-50-21t-21-50v-107z" horiz-adv-x="1142.9" />

<glyph glyph-name="repeat" unicode="&#xe84d;" d="M0 500q0 207 147 354t353 146q209 0 355-148l145 103 0-465-445 149 131 93q-82 65-186 65-123 0-210-87t-87-210 87-210 210-87q82 0 150 40t108 109l176-102q-67-113-182-182t-252-68q-207 0-353 147t-147 353z" horiz-adv-x="1000" />

<glyph glyph-name="color-adjust" unicode="&#xf020;" d="M0 500q0 95 37 182t100 149 150 100 182 37 182-37 149-100 100-149 37-182-37-182-100-150-149-100-182-37-182 37-150 100-100 150-37 182z m397-226q0-46 32-79t79-32q3 0 11-1 81 12 148 60t105 120 39 158q0 90-44 167t-118 123-164 51q60-95 60-209 0-81-31-153t-85-128q-32-33-32-77z" horiz-adv-x="937.5" />

<glyph glyph-name="move" unicode="&#xf047;" d="M1000 500q0-14-11-25l-142-143q-11-11-26-11t-25 11-10 25v72h-215v-215h72q14 0 25-10t11-25-11-25l-143-143q-10-11-25-11t-25 11l-143 143q-11 10-11 25t11 25 25 10h72v215h-215v-72q0-14-10-25t-25-11-25 11l-143 143q-11 11-11 25t11 25l143 143q10 11 25 11t25-11 10-25v-72h215v215h-72q-14 0-25 10t-11 25 11 26l143 142q11 11 25 11t25-11l143-142q11-11 11-26t-11-25-25-10h-72v-215h215v72q0 14 10 25t25 11 26-11l142-143q11-10 11-25z" horiz-adv-x="1000" />

<glyph glyph-name="menu" unicode="&#xf0c9;" d="M857 250v-71q0-15-10-25t-26-11h-785q-15 0-25 11t-11 25v71q0 15 11 25t25 11h785q15 0 26-11t10-25z m0 286v-72q0-14-10-25t-26-10h-785q-15 0-25 10t-11 25v72q0 14 11 25t25 10h785q15 0 26-10t10-25z m0 285v-71q0-14-10-25t-26-11h-785q-15 0-25 11t-11 25v71q0 15 11 26t25 10h785q15 0 26-10t10-26z" horiz-adv-x="857.1" />

<glyph glyph-name="paste" unicode="&#xf0ea;" d="M429 71h500v358h-233q-22 0-37 15t-16 38v232h-214v-643z m142 804v36q0 7-5 12t-12 6h-393q-7 0-13-6t-5-12v-36q0-7 5-13t13-5h393q7 0 12 5t5 13z m143-375h167l-167 167v-167z m286-71v-375q0-23-16-38t-38-16h-535q-23 0-38 16t-16 38v89h-303q-23 0-38 16t-16 37v750q0 23 16 38t38 16h607q22 0 38-16t15-38v-183q12-7 20-15l228-228q16-15 27-42t11-49z" horiz-adv-x="1000" />

<glyph glyph-name="ellipse" unicode="&#xf104;" d="M500 875a375 375 0 0 1-375-375 375 375 0 0 1 375-375 375 375 0 0 1 375 375 375 375 0 0 1-375 375z m0-88a287 287 0 0 0 287-287 287 287 0 0 0-287-287 287 287 0 0 0-287 287 287 287 0 0 0 287 287z" horiz-adv-x="1000" />

<glyph glyph-name="line" unicode="&#xf105;" d="M836 932l-743-743 71-71 743 743-71 71z" horiz-adv-x="1000" />

<glyph glyph-name="desktop" unicode="&#xf108;" d="M1000 446v465q0 7-5 12t-13 6h-893q-7 0-12-6t-6-12v-465q0-7 6-12t12-5h893q7 0 13 5t5 12z m71 465v-607q0-37-26-63t-63-27h-303q0-20 9-43t17-40 9-24q0-14-10-25t-25-11h-286q-15 0-25 11t-11 25q0 8 9 25t18 39 9 43h-304q-36 0-63 27t-26 63v607q0 37 26 63t63 26h893q37 0 63-26t26-63z" horiz-adv-x="1071.4" />

<glyph glyph-name="rect" unicode="&#xf10b;" d="M125 825l0-100 0-500 100 0 650 0 0 100 0 400 0 100-100 0-550 0-100 0z m100-100l550 0 0-400-550 0 0 400z" horiz-adv-x="1000" />

<glyph glyph-name="rotate" unicode="&#xf10d;" d="M498 925l20-150-44 0c-193 0-340-157-340-350 0-193 157-350 350-350 71 0 137 21 192 58 8 5 16 11 24 16l-72 72c-1-1-2-2-3-2-40-28-89-44-141-44-138 0-250 112-250 250 0 138 102 250 240 250l0 0 44 1-20-151 352 200-352 200z" horiz-adv-x="1000" />

<glyph glyph-name="text" unicode="&#xf10f;" d="M150 850l0-100 300 0 0-650 100 0 0 650 300 0 0 100-700 0z" horiz-adv-x="1000" />

<glyph glyph-name="crop" unicode="&#xf125;" d="M311 286h332v332z m-25 25l332 332h-332v-332z m643-43v-107q0-8-5-13t-13-5h-125v-125q0-8-5-13t-13-5h-107q-8 0-13 5t-5 13v125h-482q-8 0-13 5t-5 13v482h-125q-8 0-13 5t-5 13v107q0 8 5 13t13 5h125v125q0 8 5 13t13 5h107q8 0 13-5t5-13v-125h475l137 138q6 5 13 5t13-5q5-6 5-13t-5-13l-138-137v-475h125q8 0 13-5t5-13z" horiz-adv-x="928.6" />

<glyph glyph-name="eraser" unicode="&#xf12d;" d="M500 214l188 215h-429l-188-215h429z m565 601q9-19 6-40t-17-36l-500-572q-22-24-54-24h-429q-21 0-38 11t-27 31q-8 19-5 40t17 36l500 572q21 24 53 24h429q21 0 39-11t26-31z" horiz-adv-x="1071.4" />

<glyph glyph-name="doc-inv" unicode="&#xf15b;" d="M571 714v264q13-8 21-16l227-228q8-7 16-20h-264z m-71-18q0-22 16-37t38-16h303v-589q0-23-15-38t-38-16h-750q-23 0-38 16t-16 38v892q0 23 16 38t38 16h446v-304z" horiz-adv-x="857.1" />

<glyph glyph-name="wifi" unicode="&#xf1eb;" d="M571 150q-11 0-51 41t-41 52q0 18 35 30t57 13 58-13 35-30q0-11-41-52t-52-41z m151 151q-1 0-22 14t-57 28-72 14-71-14-57-28-22-14q-10 0-52 42t-42 52q0 7 5 13 44 43 109 67t130 25 131-25 109-67q5-6 5-13 0-10-42-52t-52-42z m152 152q-6 0-12 5-76 58-141 86t-150 27q-47 0-95-12t-83-29-63-35-44-30-18-12q-9 0-51 42t-42 52q0 7 6 12 74 74 178 115t212 40 213-40 178-115q6-5 6-12 0-10-42-52t-52-42z m152 151q-6 0-13 5-99 88-207 132t-235 45-234-45-207-132q-7-5-13-5-9 0-51 42t-43 52q0 7 6 13 104 104 248 161t294 57 295-57 248-161q5-6 5-13 0-10-42-52t-51-42z" horiz-adv-x="1142.9" />

<glyph glyph-name="brush" unicode="&#xf1fc;" d="M901 1000q39 0 69-26t29-65q0-35-25-84-185-351-260-420-54-51-121-51-71 0-121 52t-51 123q0 71 52 118l356 323q33 30 72 30z m-507-577q22-42 59-73t84-42l1-40q2-118-72-193t-195-75q-68 0-121 26t-85 71-49 102-16 123q4-3 23-17t35-25 32-20 26-9q23 0 31 20 14 37 32 63t39 42 49 27 57 14 70 6z" horiz-adv-x="1000" />

<glyph glyph-name="facebook-squared" unicode="&#xf308;" d="M696 929q67 0 114-48t47-113v-536q0-66-47-113t-114-48h-104v333h111l16 129h-127v83q0 31 13 46t51 16l68 1v115q-35 5-100 5-75 0-121-44t-45-127v-95h-112v-129h112v-333h-297q-67 0-114 48t-47 113v536q0 66 47 113t114 48h535z" horiz-adv-x="857.1" />

<glyph glyph-name="comment" unicode="&#xf4ac;" d="M0 554q0 67 27 130t75 114 114 89 145 59 166 21 166-21 146-59 113-89 76-114 26-130q0-84-42-160t-112-131-168-88-205-33q-105 0-201 31l-121-85q-67-42-94-24t-12 100l25 125q-60 55-92 122t-32 143z" horiz-adv-x="1054.7" />
</font>
</defs>
</svg>
